<?xml version="1.0" encoding="UTF-8"?>
<svg version="1.1" xmlns="http://www.w3.org/2000/svg" width="500" height="500">
<path d="M0 0 C165 0 330 0 500 0 C500 165 500 330 500 500 C335 500 170 500 0 500 C0 335 0 170 0 0 Z " fill="#058789" transform="translate(0,0)"/>
<path d="M0 0 C1.07527429 -0.00453111 2.15054858 -0.00906223 3.25840694 -0.01373065 C6.86793752 -0.0264089 10.47731788 -0.02475203 14.08686829 -0.02310181 C16.67233474 -0.02908498 19.25779941 -0.03589004 21.84326172 -0.04345703 C28.14187689 -0.06006373 34.44045463 -0.06556647 40.73908987 -0.06668179 C45.86093484 -0.06763262 50.98276747 -0.07174467 56.10460854 -0.07808304 C70.63352492 -0.09569618 85.16241178 -0.10492204 99.69133892 -0.10342209 C100.86600779 -0.10330222 100.86600779 -0.10330222 102.06440735 -0.10317993 C102.84847904 -0.10309817 103.63255072 -0.10301641 104.44038216 -0.10293217 C117.14008414 -0.10211972 129.83966739 -0.1212469 142.53933503 -0.14945666 C155.58667325 -0.17820936 168.63395361 -0.19199558 181.6813243 -0.19026911 C189.00338715 -0.18960593 196.32532559 -0.1950663 203.64735985 -0.21662521 C210.53631329 -0.23677918 217.42500028 -0.23613887 224.31396675 -0.22159195 C226.8398769 -0.21950135 229.36580342 -0.22421959 231.89168549 -0.23631287 C235.34549712 -0.25177524 238.79840475 -0.24244934 242.25219727 -0.22705078 C243.74420427 -0.24248147 243.74420427 -0.24248147 245.26635283 -0.25822389 C252.51177056 -0.1870606 259.79077397 0.99235301 265.36273211 5.98815024 C271.6145653 12.79976761 272.88467286 19.03534068 272.83123779 28.0335083 C272.8393161 29.66206873 272.8393161 29.66206873 272.8475576 31.32352936 C272.86186746 34.96233264 272.85472575 38.60077369 272.84761047 42.23959351 C272.85331246 44.84815768 272.86027605 47.45671937 272.8684082 50.0652771 C272.88559607 56.41591145 272.88643619 62.76644686 272.8811953 69.11709844 C272.87715204 74.27994071 272.87859901 79.44275376 272.88394356 84.60559464 C272.88469198 85.340718 272.8854404 86.07584137 272.8862115 86.8332412 C272.887743 88.32670815 272.88928135 89.8201751 272.89082647 91.31364204 C272.90455167 105.31646239 272.89911387 119.31922686 272.88764126 133.32204594 C272.87771066 146.12650449 272.89064647 158.9308185 272.91457545 171.73525475 C272.93897134 184.88884272 272.94857301 198.04236338 272.94192272 211.19597352 C272.93843135 218.57831215 272.94065701 225.96053966 272.95817375 233.34286118 C272.97444234 240.28518362 272.9697064 247.22722566 272.95086861 254.16954041 C272.94717783 256.71725028 272.95030533 259.26498054 272.96075439 261.81267166 C272.9739318 265.29122567 272.96244412 268.76886105 272.94476318 272.24737549 C272.95436819 273.25497229 272.9639732 274.26256908 272.97386926 275.30069911 C272.89937185 282.42694306 271.40688967 287.75149092 266.76777649 293.25570679 C266.2276593 293.69269897 265.68754211 294.12969116 265.13105774 294.57992554 C264.59867493 295.02980835 264.06629211 295.47969116 263.51777649 295.94320679 C256.85284443 300.19821991 251.41902932 300.69894859 243.65765381 300.64164734 C242.04407103 300.64760895 242.04407103 300.64760895 240.39789063 300.65369099 C236.79896425 300.66330342 233.20043198 300.65150189 229.60151672 300.63973999 C227.01911777 300.64216828 224.43671976 300.64588796 221.85432434 300.65080261 C215.57199563 300.660278 209.28978199 300.65370202 203.00746184 300.64153967 C195.68933113 300.62790107 188.37122766 300.62955915 181.05308748 300.631673 C167.99515098 300.63486099 154.93726907 300.62320568 141.87934875 300.60360718 C129.21201414 300.58459994 116.54474349 300.57752089 103.87739563 300.58309937 C90.07794146 300.58915844 76.27851541 300.58897803 62.47906357 300.57761353 C61.00741549 300.57640626 59.53576742 300.57520027 58.06411934 300.57399559 C56.97804162 300.57309028 56.97804162 300.57309028 55.87002293 300.57216669 C50.77018171 300.56828916 45.67035095 300.56868051 40.57050896 300.57058144 C33.70621526 300.57292624 26.8420052 300.56436762 19.9777298 300.54852104 C17.45659538 300.54427423 14.93545263 300.54343029 12.41431618 300.54621124 C8.97694622 300.54942795 5.53982265 300.54036379 2.10247803 300.52812195 C0.60087675 300.53379093 0.60087675 300.53379093 -0.9310599 300.53957444 C-9.23865814 300.48712425 -15.86898795 298.95487985 -21.97441101 292.84945679 C-27.66308515 286.36003086 -27.85028465 280.89679399 -27.83059692 272.62832642 C-27.8358336 271.54417946 -27.84107028 270.4600325 -27.84646565 269.3430326 C-27.86148943 265.7035353 -27.86217133 262.0641783 -27.86283875 258.4246521 C-27.87045864 255.8178585 -27.87888584 253.21106715 -27.88806152 250.60427856 C-27.91089632 243.51742011 -27.9188305 236.43059162 -27.92388797 229.34370136 C-27.92714678 224.91682045 -27.93367037 220.48994821 -27.94088936 216.0630722 C-27.96045335 203.80098374 -27.97685872 191.53890333 -27.97976589 179.27679825 C-27.97995346 178.49235332 -27.98014103 177.70790839 -27.98033429 176.8996924 C-27.98070053 175.30950149 -27.98106423 173.71931058 -27.9814254 172.12911966 C-27.98160821 171.33977037 -27.98179102 170.55042107 -27.98197937 169.7371521 C-27.98215992 168.94683687 -27.98234047 168.15652164 -27.98252649 167.34225747 C-27.98606759 154.538391 -28.01308682 141.73469276 -28.05047726 128.93088463 C-28.0885777 115.77845954 -28.1079235 102.62611789 -28.10822541 89.47363639 C-28.10880959 82.09176852 -28.11727619 74.71010136 -28.14622307 67.32828522 C-28.17332824 60.38430384 -28.174627 53.44072584 -28.15856743 46.49671173 C-28.15675029 43.9494134 -28.16346731 41.40209238 -28.17938614 38.85484314 C-28.19981003 35.37424411 -28.18931439 31.89504054 -28.1711731 28.41445923 C-28.18437306 27.40909315 -28.19757303 26.40372708 -28.211173 25.36789536 C-28.12064727 17.75100398 -26.08988538 11.93758238 -20.7424373 6.38323426 C-14.28392767 0.43300362 -8.51027574 -0.02620541 0 0 Z " fill="#FEFEFE" transform="translate(127.55644226074219,99.73257446289063)"/>
<path d="M0 0 C12.48782648 -0.6410101 21.34350514 1.89487645 31 10 C40.72626009 18.86093446 46.60851264 31.43922589 47.37109375 44.59375 C47.92587623 66.65082765 40.07840737 86.76361036 25 103 C24.19046875 103.90105469 23.3809375 104.80210937 22.546875 105.73046875 C11.11887752 117.85988524 -3.31775577 126.34709278 -18 134 C-18.33 134 -18.66 134 -19 134 C-19.12512272 127.61874143 -19.12512272 127.61874143 -18.5065918 124.56005859 C-13.86186124 101.08794073 -20.37120098 74.88865611 -33 55 C-40.25111406 44.21189428 -48.66244955 35.56277562 -60 29 C-56.97658879 25.97658879 -54.66878105 26.058665 -50.4375 25.6875 C-42.44678063 25.83630297 -34.92967059 29.08175794 -29.1640625 34.55078125 C-25.07279711 39.1811484 -21.47623124 44.19576338 -17.8203125 49.171875 C-9.16428266 60.97666125 -9.16428266 60.97666125 3.99609375 66.51171875 C9.02411407 66.7941918 12.9402303 66.67986254 17 63.5 C24.47509958 55.77027416 26.39426235 45.56940937 26.37011719 35.14111328 C26.14737115 25.67003908 22.88050778 17.15290822 16.3203125 10.2265625 C11.41901112 5.56146841 6.3914195 3.10864455 0 1 C0 0.67 0 0.34 0 0 Z " fill="#E04140" transform="translate(275,154)"/>
<path d="M0 0 C1.05779663 0.00845947 1.05779663 0.00845947 2.13696289 0.01708984 C12.35298278 0.25333896 19.12547634 3.34787015 27.25 9.3125 C28.24 9.9725 29.23 10.6325 30.25 11.3125 C30.95962891 10.73242188 30.95962891 10.73242188 31.68359375 10.140625 C37.66964459 5.42646411 43.35462208 1.3125 51.1875 1.3125 C61.70885117 3.44605431 70.07224171 8.26791845 76.125 17.25 C79.85567959 23.76926838 80.5144543 29.90777967 80.25 37.3125 C79.12032213 35.6179832 78.00105014 33.91607838 76.91796875 32.19140625 C71.92239724 24.37511626 67.34137334 20.48686659 58.25 18.3125 C50.49952034 17.46699313 43.12485237 19.65280878 36.875 24.25 C34.16752498 26.44776818 31.61822244 28.74692569 29.25 31.3125 C28.8375 30.78140625 28.425 30.2503125 28 29.703125 C22.46409207 22.93152334 16.80236564 19.25024798 8.09375 18.00390625 C0.44655116 17.58331031 -5.5175611 19.9210553 -11.75 24.3125 C-18.73276948 31.87492023 -20.08033892 39.86750504 -19.953125 49.875 C-19.71160945 53.96218622 -18.99432064 57.423998 -17.75 61.3125 C-23.05397203 60.32022015 -26.3051398 57.34400966 -29.75 53.3125 C-34.28715315 45.92466549 -35.24351288 38.49397624 -35.4375 30 C-35.46908203 29.1644458 -35.50066406 28.3288916 -35.53320312 27.46801758 C-35.47522911 20.83987492 -33.26051061 17.0732489 -28.75 12.3125 C-20.59266375 4.63100836 -11.31928005 -0.09476732 0 0 Z " fill="#08888A" transform="translate(219.75,153.6875)"/>
<path d="M0 0 C0.33 0 0.66 0 1 0 C1.10957031 1.05058594 1.21914062 2.10117188 1.33203125 3.18359375 C2.82542931 18.91853394 2.82542931 18.91853394 11 32 C15.79739784 35.27055875 20.51768111 37.07179898 26.25 37.875 C36.34863891 39.3955337 45.76329402 44.93559654 53 52 C51.25 55.875 51.25 55.875 49 57 C47.125 57.1328125 47.125 57.1328125 45 57.125 C43.948125 57.12886719 43.948125 57.12886719 42.875 57.1328125 C41 57 41 57 39 56 C37.50350638 55.87994547 36.00125207 55.82468549 34.5 55.8125 C33.7059375 55.79832031 32.911875 55.78414062 32.09375 55.76953125 C29.77966683 55.80333697 29.77966683 55.80333697 28 58 C27.14921484 65.94066152 29.53340066 73.09269016 34.3125 79.5 C40.99359745 86.67285335 50.58777628 91.82769784 59.1875 96.3125 C63.05045605 98.37044385 65.9395438 99.97720456 68 104 C68.25 107.8125 68.25 107.8125 68 111 C44.03406398 104.02257559 18.0647358 83.14383687 5.78442383 61.64550781 C-3.70970112 44.24820168 -7.63461246 26.3202095 -2.8515625 6.77734375 C-2.10211799 4.33305453 -1.23128539 2.23237395 0 0 Z " fill="#0A898B" transform="translate(182,180)"/>
<path d="M0 0 C3.48162776 1.42111052 4.74031549 2.94978456 6.75390625 6.0625 C9.66865359 9.50571555 11.91292916 10.52392908 16.42269897 10.91601562 C19.93182048 11.06033026 23.42648902 11.04989144 26.9375 11 C28.39911307 11.00810117 29.86071091 11.01978695 31.32226562 11.03515625 C34.88228058 11.06484516 38.44006288 11.04576653 42 11 C42 12.32 42 13.64 42 15 C40.68 15 39.36 15 38 15 C38 17.31 38 19.62 38 22 C34.37 22 30.74 22 27 22 C29.37728921 26.13290148 29.37728921 26.13290148 31.97265625 26.3203125 C32.66230469 26.25585938 33.35195312 26.19140625 34.0625 26.125 C35.361875 26.08375 36.66125 26.0425 38 26 C38.66 26.66 39.32 27.32 40 28 C39.86764207 31.63984314 39.75811748 34.0960907 37.375 36.9375 C33.9964056 38.44897644 31.67009386 38.44294236 28 38 C23.20342682 35.50578194 20.06695243 32.36808377 17 28 C17.33 27.01 17.66 26.02 18 25 C18.66 25 19.32 25 20 25 C21.65625 26.71484375 21.65625 26.71484375 23.5 28.9375 C25.88926999 31.92045179 25.88926999 31.92045179 29 34 C30.99960012 34.039992 33.00047242 34.04346799 35 34 C35.33 32.35 35.66 30.7 36 29 C34.948125 29.268125 33.89625 29.53625 32.8125 29.8125 C29 30 29 30 26.125 27.875 C24.038511 25.05210312 23.19275922 23.46966592 23 20 C24 19 24 19 26.28515625 18.90234375 C27.20167969 18.91394531 28.11820313 18.92554688 29.0625 18.9375 C29.98160156 18.94652344 30.90070313 18.95554687 31.84765625 18.96484375 C32.55792969 18.97644531 33.26820313 18.98804688 34 19 C34 17.68 34 16.36 34 15 C26.74 15 19.48 15 12 15 C12 22.59 12 30.18 12 38 C11.01 38 10.02 38 9 38 C9 34.37 9 30.74 9 27 C6.03 27 3.06 27 0 27 C0 28.65 0 30.3 0 32 C-2.88437779 30.70700306 -4.87219421 29.34058637 -7 27 C-6.67 26.01 -6.34 25.02 -6 24 C-5.01 24 -4.02 24 -3 24 C-3 21.03 -3 18.06 -3 15 C-4.65 15 -6.3 15 -8 15 C-8 13.68 -8 12.36 -8 11 C-3.05 11 1.9 11 7 11 C5.35 9.35 3.7 7.7 2 6 C1 5 0 4 -1 3 C-0.67 2.01 -0.34 1.02 0 0 Z " fill="#168F91" transform="translate(173,306)"/>
<path d="M0 0 C1.23556641 0.01740234 1.23556641 0.01740234 2.49609375 0.03515625 C3.32238281 0.04417969 4.14867187 0.05320312 5 0.0625 C5.63808594 0.07410156 6.27617187 0.08570313 6.93359375 0.09765625 C19.93359375 27.55919471 19.93359375 27.55919471 19.93359375 30.09765625 C16.96359375 30.09765625 13.99359375 30.09765625 10.93359375 30.09765625 C10.27359375 28.11765625 9.61359375 26.13765625 8.93359375 24.09765625 C2.49859375 24.59265625 2.49859375 24.59265625 -4.06640625 25.09765625 C-5.05640625 27.57265625 -5.05640625 27.57265625 -6.06640625 30.09765625 C-9.03640625 30.09765625 -12.00640625 30.09765625 -15.06640625 30.09765625 C-13.79355767 26.14290297 -12.37362644 22.3257202 -10.71875 18.515625 C-10.27853516 17.50177734 -9.83832031 16.48792969 -9.38476562 15.44335938 C-8.70124023 13.88004883 -8.70124023 13.88004883 -8.00390625 12.28515625 C-7.54435547 11.22361328 -7.08480469 10.16207031 -6.61132812 9.06835938 C-2.71616667 0.12836326 -2.71616667 0.12836326 0 0 Z " fill="#0B8A8B" transform="translate(258.06640625,313.90234375)"/>
<path d="M0 0 C7.92 0 15.84 0 24 0 C24 1.98 24 3.96 24 6 C19.05 6 14.1 6 9 6 C9 7.65 9 9.3 9 11 C13.29 11 17.58 11 22 11 C22 13.31 22 15.62 22 18 C17.71 18 13.42 18 9 18 C9 19.65 9 21.3 9 23 C14.28 23 19.56 23 25 23 C25 25.31 25 27.62 25 30 C16.75 30 8.5 30 0 30 C0 20.1 0 10.2 0 0 Z " fill="#108C8E" transform="translate(308,314)"/>
<path d="M0 0 C7.92 0 15.84 0 24 0 C24 1.98 24 3.96 24 6 C19.05 6 14.1 6 9 6 C9 7.98 9 9.96 9 12 C13.29 12 17.58 12 22 12 C22 13.98 22 15.96 22 18 C17.71 18 13.42 18 9 18 C9 19.65 9 21.3 9 23 C14.28 23 19.56 23 25 23 C25 25.31 25 27.62 25 30 C16.75 30 8.5 30 0 30 C0 20.1 0 10.2 0 0 Z " fill="#0F8C8E" transform="translate(217,314)"/>
<path d="M0 0 C3.45658479 2.04573386 4.7785359 3.66780385 7 7 C7.59022577 11.52250916 7.52729459 15.69563971 5.8125 19.9375 C3.02621675 23.10809818 0.90464899 24.74269981 -3.37109375 25.3203125 C-7.63789757 25.51051178 -10.25795044 25.43286224 -14 23.25 C-17.89633357 18.86662474 -18.48802294 15.23445706 -18.39453125 9.48046875 C-17.75198843 5.44071935 -15.9613537 3.74982843 -13 1 C-9.062678 -0.968661 -4.29203754 -0.45897511 0 0 Z " fill="#E04241" transform="translate(285,188)"/>
<path d="M0 0 C1.41732422 -0.02126953 1.41732422 -0.02126953 2.86328125 -0.04296875 C5.83156882 0.19925665 7.99617165 0.94723393 10.6875 2.1875 C9.8125 6.9375 9.8125 6.9375 8.6875 9.1875 C8.006875 9.0225 7.32625 8.8575 6.625 8.6875 C3.2710178 8.11660941 0.08360195 8.12090977 -3.3125 8.1875 C-3.3125 9.1775 -3.3125 10.1675 -3.3125 11.1875 C-2.56484375 11.35765625 -1.8171875 11.5278125 -1.046875 11.703125 C-0.06203125 11.94546875 0.9228125 12.1878125 1.9375 12.4375 C2.91203125 12.66953125 3.8865625 12.9015625 4.890625 13.140625 C8.07517279 14.33260658 9.59429778 15.52475206 11.6875 18.1875 C12.47940864 23.17652441 12.49130719 25.01832591 9.625 29.1875 C4.50638428 32.85070209 -3.38031331 31.82356968 -9.3125 31.1875 C-11.7734375 30.16015625 -11.7734375 30.16015625 -13.3125 29.1875 C-12.9375 26.25 -12.9375 26.25 -12.3125 23.1875 C-11.6525 22.8575 -10.9925 22.5275 -10.3125 22.1875 C-9.425625 22.496875 -8.53875 22.80625 -7.625 23.125 C-4.01367046 24.28335098 -1.0805043 24.33822017 2.6875 24.1875 C3.0175 23.1975 3.3475 22.2075 3.6875 21.1875 C2.47513672 20.94966797 2.47513672 20.94966797 1.23828125 20.70703125 C-3.59216347 19.65237444 -7.46399668 18.77492538 -11.5625 15.9375 C-13.8764071 12.30136027 -14.14343787 10.41772916 -13.3125 6.1875 C-9.51811876 1.68960126 -5.72991883 0.03876806 0 0 Z " fill="#0D8B8D" transform="translate(292.3125,312.8125)"/>
<path d="M0 0 C2.84406865 1.3339437 5.23477329 2.87867133 7.75 4.75 C12.620138 8.07792764 17.77092306 9.96203634 23.32714844 11.81933594 C27.56100951 13.2760817 30.78619124 14.85301902 34 18 C34.8125 21.25 34.8125 21.25 35 24 C23.13141753 22.34712198 12.10320194 14.35446402 4 6 C3.25234375 5.29359375 2.5046875 4.5871875 1.734375 3.859375 C0 2 0 2 0 0 Z " fill="#138D8F" transform="translate(215,251)"/>
<path d="M0 0 C0.90878906 0.29003906 0.90878906 0.29003906 1.8359375 0.5859375 C6.30129229 1.97363237 10.62806754 3.1444818 15.25 3.875 C20.12237345 4.78953066 22.63221195 6.36633395 26 10 C26 10.99 26 11.98 26 13 C15.77692815 12.11103723 7.53107589 7.93077274 0 1 C0 0.67 0 0.34 0 0 Z " fill="#138E90" transform="translate(219,247)"/>
<path d="M0 0 C3.48162776 1.42111052 4.74031549 2.94978456 6.75390625 6.0625 C9.66865359 9.50571555 11.91292916 10.52392908 16.42269897 10.91601562 C19.93182048 11.06033026 23.42648902 11.04989144 26.9375 11 C28.39911307 11.00810117 29.86071091 11.01978695 31.32226562 11.03515625 C34.88228058 11.06484516 38.44006288 11.04576653 42 11 C42 11.33 42 11.66 42 12 C25.83 12 9.66 12 -7 12 C-7 12.66 -7 13.32 -7 14 C-5.02 14.495 -5.02 14.495 -3 15 C-4.65 15 -6.3 15 -8 15 C-8 13.68 -8 12.36 -8 11 C-3.05 11 1.9 11 7 11 C5.35 9.35 3.7 7.7 2 6 C1 5 0 4 -1 3 C-0.67 2.01 -0.34 1.02 0 0 Z " fill="#7BBFC0" transform="translate(173,306)"/>
<path d="M0 0 C8.64591249 2.40164236 15.17912804 7.45241248 19.93359375 15.1171875 C23.6969691 22.4995401 25.15745473 27.98163385 25.0625 36.25 C25.05798828 36.99507812 25.05347656 37.74015625 25.04882812 38.5078125 C25.03709246 40.3385764 25.0191585 42.16929873 25 44 C22.28771071 39.93156607 21.95953587 37.19369171 22.125 32.3125 C22.19134653 23.50499849 18.83782711 16.43657861 13 10 C8.7546521 5.7546521 3.54490097 4.02415802 -2 2 C-1.34 1.34 -0.68 0.68 0 0 Z " fill="#E6E5E5" transform="translate(277,155)"/>
<path d="M0 0 C2.97 0 5.94 0 9 0 C9 2.97 9 5.94 9 9 C6.03 9 3.06 9 0 9 C0 6.03 0 3.06 0 0 Z " fill="#F0F7F7" transform="translate(173,321)"/>
<path d="M0 0 C0.66 0 1.32 0 2 0 C2.01417969 1.00417969 2.02835938 2.00835937 2.04296875 3.04296875 C2.33102974 13.10284967 3.13687635 23.35953494 10.00390625 31.32421875 C12.9283345 33.97936263 15.23469581 35.7448986 19 37 C19 37.66 19 38.32 19 39 C13.95189916 37.70862537 11.40210953 35.92551099 8 32 C7.13375 31.01 6.2675 30.02 5.375 29 C0.13205923 21.41587185 -0.93099183 10.04007044 -1 1 C-0.67 0.67 -0.34 0.34 0 0 Z " fill="#CBE6E6" transform="translate(183,178)"/>
<path d="M0 0 C3.44428265 1.44781793 5.36130962 3.27694609 7.75 6.125 C8.36359375 6.84945313 8.9771875 7.57390625 9.609375 8.3203125 C10.29773438 9.15175781 10.29773438 9.15175781 11 10 C10.01 10.33 9.02 10.66 8 11 C5.03 8.36 2.06 5.72 -1 3 C-0.67 2.01 -0.34 1.02 0 0 Z " fill="#1D9294" transform="translate(173,306)"/>
<path d="M0 0 C2.50298434 2.93828597 3.46930939 5.17902761 4 9 C1.69 9 -0.62 9 -3 9 C-2.44271087 5.65626525 -1.64826111 2.96687001 0 0 Z " fill="#E6F3F3" transform="translate(260,323)"/>
<path d="M0 0 C0.33 0 0.66 0 1 0 C1 5.28 1 10.56 1 16 C-1.33849443 12.49225836 -2.39276981 10.13444602 -1.61328125 5.8984375 C-1.12055074 3.92052639 -0.56436407 1.95867529 0 0 Z " fill="#CFCCCD" transform="translate(301,183)"/>
</svg>
